<?xml version="1.0" encoding="utf-8"?>
<!-- Svg Vector Icons : http://www.onlinewebfonts.com/icon -->
<!DOCTYPE svg PUBLIC "-//W3C//DTD SVG 1.1//EN" "http://www.w3.org/Graphics/SVG/1.1/DTD/svg11.dtd">
<svg version="1.1" xmlns="http://www.w3.org/2000/svg" xmlns:xlink="http://www.w3.org/1999/xlink" x="0px" y="0px" viewBox="0 0 1000 1000" enable-background="new 0 0 1000 1000" xml:space="preserve">
<metadata> Svg Vector Icons : http://www.onlinewebfonts.com/icon </metadata>
<g><path d="M10,43.5c0,0,30.8,101.6,49.5,151.2c26.6,70.5,70.5,117.8,118.7,160.3c54.2,48.2,119.7,80.1,187.5,99.6c63.2,17.6,128.5,26.1,193.8,26.6c-0.4-73.3-0.1-146.6-0.2-219.8C702.9,377.1,846.5,493,990,608.9c-143.5,116-286.9,231.9-430.6,347.6c-0.1-73.7,0-147.4-0.1-221c-103.2-2-208.1-25.8-297.3-82.8c-46.4-29.4-87.9-67.5-122.3-111.8c-43.2-55.4-78.9-119.1-97.4-188.1C10,232.2,10,43.5,10,43.5z"/></g>
</svg>