<?xml version="1.0" encoding="UTF-8"?>
<!DOCTYPE svg PUBLIC "-//W3C//DTD SVG 1.0//EN"
	"http://www.w3.org/TR/2001/REC-SVG-20010904/DTD/svg10.dtd">
<svg xmlns="http://www.w3.org/2000/svg" version="1.0" width="346.70203" height="300" id="s1">
<g transform="translate(-148.25102,-234.50504)" id="l1">
<path d="M317.4419,234.50504L317.4419,252.15854C308.25032,266.11754 301.28768,325.68674 300.87374,397.98026C308.82314,387.40556 313.82444,375.40802 313.82444,365.31416L313.82444,354.93188L313.82444,353.88284C313.80434,350.27798 314.33324,346.74926 315.3077,343.28354C315.74732,341.83184 316.24688,340.52372 317.08016,339.34046C317.91338,338.1572 319.40486,336.77198 321.602,336.77198C323.79932,336.77198 325.29068,338.1572 326.1239,339.34046C326.9573,340.52372 327.45692,341.83184 327.89654,343.28354C328.871,346.74926 329.39996,350.27798 329.37968,353.88284L329.37968,354.93188L329.37968,365.31416C329.37968,375.40802 334.38098,387.40556 342.33044,397.98026C341.9165,325.68674 334.95386,266.11754 325.76216,252.15854L325.76216,234.50504L321.602,234.50504L317.4419,234.50504zM299.60756,334.56536C293.15912,336.0236 286.94264,338.0768 281.01362,340.71506C287.03906,351.6338 287.6216,362.81852 282.17132,365.96528C276.75368,369.0932 267.37718,363.10208 260.93648,352.54436C253.09376,358.49972 246.12002,365.62754 240.24434,373.59824C250.21736,380.10926 255.74708,389.11916 252.65228,394.36274C249.57614,399.57458 239.08868,399.19724 228.63218,393.71156C224.71556,402.68378 222.02996,412.33664 220.74596,422.43464C227.3015,422.5592 233.3894,424.0463 238.4717,426.52238C250.51136,426.31898 260.66522,425.19314 265.89242,423.66458C269.6489,405.81974 281.48354,391.00424 297.25622,383.36552C297.74792,366.06758 298.52786,349.73156 299.60756,334.56536zM343.59656,334.56536C344.67632,349.73156 345.45608,366.06758 345.94784,383.36552C361.72052,391.00424 373.55522,405.81974 377.3117,423.66458C382.53896,425.19314 392.69288,426.31898 404.73236,426.52238C409.81478,424.0463 415.90262,422.5592 422.45828,422.43464C421.17422,412.33664 418.4885,402.68378 414.572,393.71156C404.1155,399.19724 393.62798,399.57458 390.55178,394.36274C387.45692,389.11916 392.98682,380.10926 402.9599,373.59824C397.08398,365.62754 390.1103,358.49972 382.2677,352.54436C375.82688,363.10208 366.45044,369.0932 361.03292,365.96528C355.58246,362.81852 356.16524,351.6338 362.19062,340.71506C356.26148,338.0768 350.045,336.0236 343.59656,334.56536zM321.602,340.3895C319.412,340.3895 317.63342,346.3553 317.47808,353.88284L317.4419,353.88284L317.4419,354.93188L317.4419,365.31416C317.4419,393.36104 284.25578,429.66962 254.13548,429.66962C218.9228,429.66962 171.0122,428.68874 148.25102,449.4212L148.25102,451.12148C154.62968,462.71246 162.1859,473.58314 170.7158,483.60668C179.1998,469.32644 205.65302,455.87438 243.86174,455.6072C274.79582,456.2951 297.3755,469.37546 305.32328,483.28112C305.32784,483.2891 305.31872,483.30932 305.32328,483.3173C310.51544,484.76654 316.05404,485.50112 321.602,485.4878C327.15002,485.50112 332.68874,484.76654 337.88084,483.3173C337.88552,483.30932 337.87634,483.2891 337.88084,483.28112C345.82868,469.37546 368.4083,456.2951 399.34238,455.6072C437.5511,455.87438 464.00438,469.32644 472.48838,483.60668C481.01828,473.58314 488.5745,462.71246 494.95304,451.12148L494.95304,449.4212C472.19198,428.68874 424.2812,429.66962 389.06858,429.66962C358.94828,429.66962 325.76216,393.36104 325.76216,365.31416L325.76216,354.93188L325.76216,353.88284L325.7261,353.88284C325.57064,346.3553 323.79206,340.3895 321.602,340.3895zM321.602,405.79406C336.7862,405.79406 349.09508,418.103 349.09514,433.28714C349.09514,448.47122 336.7862,460.8164 321.602,460.8164C306.41798,460.8164 294.10898,448.47122 294.10898,433.28714C294.10916,418.103 306.41798,405.79406 321.602,405.79406zM321.602,410.96714C309.28298,410.96714 299.28194,420.968 299.28194,433.28714C299.28194,445.60634 309.28298,455.6072 321.602,455.6072C333.92114,455.6072 343.92206,445.60634 343.92206,433.28714C343.92206,420.968 333.92114,410.96714 321.602,410.96714zM321.602,415.12724C331.6292,415.12724 339.7619,423.25994 339.7619,433.28714C339.7619,443.31434 331.6292,451.4471 321.602,451.4471C311.57498,451.4471 303.44228,443.31434 303.44228,433.28714C303.44228,423.25994 311.57498,415.12724 321.602,415.12724zM243.86174,460.27376C236.96252,460.32206 229.23332,460.51526 223.20578,461.39516C223.4957,464.3858 224.22848,474.00944 228.01706,481.54472C234.18482,479.81108 240.45014,478.90394 246.71972,478.90394C274.67516,479.54174 295.12418,502.16168 299.7161,529.33202L299.78852,532.51544C306.83324,533.8115 314.13656,534.50504 321.602,534.50504C329.06762,534.50504 336.37082,533.8115 343.41572,532.51544L343.48796,529.33202C348.08,502.16168 368.5289,479.54174 396.48446,478.90394C402.75392,478.90394 409.01942,479.81108 415.187,481.54472C418.97576,474.00944 419.70854,464.3858 419.99822,461.39516C413.97086,460.51526 406.24154,460.32206 399.34238,460.27376C386.64152,460.55618 375.51014,463.0988 366.42296,466.82144C357.92834,477.67598 346.68056,487.1588 332.85248,489.21386C332.78822,489.22478 332.73608,489.23924 332.67158,489.24998C332.6384,489.25688 332.5964,489.27938 332.56316,489.28616C329.01662,490.01252 325.36226,490.3715 321.602,490.3715C317.84192,490.3715 314.18738,490.01252 310.64108,489.28616C310.60778,489.27938 310.56554,489.25688 310.53248,489.24998C310.4681,489.23924 310.41596,489.22478 310.3517,489.21386C296.5235,487.1588 285.27572,477.67598 276.78116,466.82144C267.69404,463.0988 256.56254,460.55618 243.86174,460.27376z" style="fill:#fff;fill-opacity:0.6;stroke:none;stroke-width:9;stroke-miterlimit:4;stroke-dashoffset:1.8;stroke-opacity:1" id="p1"/>
</g>
</svg>